<?xml version="1.0" encoding="UTF-8"?>
<svg width="166px" height="37px" viewBox="0 0 166 37" version="1.1" xmlns="http://www.w3.org/2000/svg" xmlns:xlink="http://www.w3.org/1999/xlink">
    <title>Logo</title>
    <g id="wiki" stroke="none" stroke-width="1" fill="none" fill-rule="evenodd">
        <g id="wiki-copy-2" transform="translate(-42.000000, -19.000000)">
            <g id="Logo" transform="translate(42.000000, 19.000000)">
                <text id="DATATOURISME" font-family="BebasNeueBold, Bebas Neue" font-size="30.2012501" font-weight="bold" letter-spacing="-0.0705457168">
                    <tspan x="29" y="29" fill="#F84B71">DATA</tspan>
                    <tspan x="75.197541" y="29" fill="#027A87">TOURISME</tspan>
                </text>
                <g id="noun_Data_1808501-Copy" transform="translate(0.000000, 5.000000)" fill="#027A87" fill-rule="nonzero">
                    <path d="M23.6364422,3.24371746 C22.1488748,3.24371746 20.938064,4.5014006 20.938064,6.04655417 C20.938064,6.58556123 21.0764424,7.08863449 21.3531991,7.51984014 L17.9283345,10.3226769 C17.0634696,9.31653034 15.7834697,8.66972187 14.3650914,8.66972187 C13.0850915,8.66972187 11.94347,9.20872893 11.0786051,10.0352064 L5.95860545,5.11227527 C6.33914596,4.57326821 6.58130811,3.96239354 6.58130811,3.24371746 C6.58130811,1.51889487 5.232119,0.153410318 3.60617315,0.153410318 C1.98022731,0.153410318 0.631038197,1.55482867 0.631038197,3.24371746 C0.631038197,4.93260625 1.98022731,6.33402461 3.60617315,6.33402461 C4.36725419,6.33402461 5.05914604,6.04655417 5.57806493,5.54348092 L10.66347,10.4664121 C9.97157818,11.3288234 9.59103766,12.4068375 9.59103766,13.6285868 C9.59103766,15.3893432 10.4559025,16.898563 11.770497,17.7969081 L8.69157826,23.4385153 C8.24184855,23.2229125 7.72292967,23.0791773 7.20401078,23.0791773 C5.232119,23.0791773 3.60617315,24.7321323 3.60617315,26.8162929 C3.60617315,28.8645197 5.19752441,30.5534085 7.20401078,30.5534085 C9.21049714,30.5534085 10.7672538,28.9004535 10.7672538,26.8522267 C10.7672538,25.5586097 10.1445511,24.4446618 9.21049714,23.7619195 L12.2894159,18.1203123 C12.9121185,18.4437166 13.638605,18.6233856 14.3650914,18.6233856 C15.3683346,18.6233856 16.3023886,18.2999813 17.0634696,17.7609743 L19.5888749,21.1028181 C19.3121182,21.4262223 19.1045506,21.8574279 19.1045506,22.3605012 C19.1045506,23.4025815 19.9002262,24.229059 20.9034694,24.229059 C21.9067126,24.229059 22.7023882,23.4025815 22.7023882,22.3605012 C22.7023882,21.3184209 21.9067126,20.4919434 20.9034694,20.4919434 C20.5921181,20.4919434 20.3153613,20.563811 20.0386046,20.7075462 L17.4786048,17.3297686 C18.4472534,16.4314235 19.069956,15.1018728 19.069956,13.6285868 C19.069956,12.5865065 18.7586047,11.6162938 18.2050912,10.7898163 L21.6299559,7.98697959 C22.1142802,8.49005285 22.806172,8.81345708 23.5326585,8.81345708 C25.0202259,8.81345708 26.2310367,7.55577394 26.2310367,6.01062037 C26.2310367,4.4654668 25.1240097,3.24371746 23.6364422,3.24371746 Z" id="Path"></path>
                </g>
            </g>
        </g>
    </g>
</svg>