<svg xmlns="http://www.w3.org/2000/svg" viewBox="0 0 48 48" width="48px" height="48px"><path fill="#f3ad20" d="M13.35,13.779c1.967-1.066,4.445-1.977,6.678-2.12c0.911-0.058,2.358-0.208,3.271-0.186 c3.278,0.081,6.216,0.658,9.096,2.226c0,0-3.718,1.095-5.573,3.299s-3.249,6.012-3.036,7.389c-0.603-2.864-1.54-5.654-4.161-7.393 S15.203,14.168,13.35,13.779z"/><path fill="#d6e5e5" d="M43.647,16.542c-1.448-1.594-3.269-2.134-5.36-2.789c-4.99-1.563-10.87,1.136-13.173,5.676 s-1.12,10.361,2.445,14.069c2.222,2.311,5.349,3.879,8.617,3.981c3.269,0.102,6.621-1.371,8.425-3.998 c0.789-1.149,1.269-2.464,1.711-3.774c0.98-2.903,1.8-6.12,0.59-8.942C46.131,18.964,44.98,18.009,43.647,16.542z"/><path fill="#d6e5e5" d="M23.343,21.844c-0.984-3.112-4.227-5.652-7.176-7.035c-1.427-0.669-2.979-1.128-4.554-1.11 c-1.855,0.022-3.692,0.659-5.226,1.706C3.498,17.38,1.301,20.5,0.664,23.784c-0.665,3.423,0.639,7.19,3.298,9.439 c1.623,1.373,3.668,2.144,5.726,2.667c2.275,0.579,4.708,0.879,6.946,0.171c2.793-0.884,4.943-3.282,6.035-6.007 S24.228,24.644,23.343,21.844z"/><path fill="#373837" d="M46.892,20.765c-0.787-1.801-0.868-1.515-1.405-2.262c0.623-1.857,0.87-3.283,1.938-4.926 c-1.935,0.313-4.273,0.492-6.232,0.442c-0.534-0.014-1.072-0.041-1.592-0.164c-0.673-0.158-1.298-0.47-1.924-0.765 c-4.529-2.135-9.465-3.51-14.471-3.573c-5.006-0.063-10.411,1.404-14.542,4.232c-1.6-0.189-3.956,0.063-5.556-0.126 c-0.687-0.081-1.392-0.162-2.065-0.002c-0.182,0.043-0.385,0.127-0.44,0.306c-0.048,0.157,0.037,0.32,0.119,0.463 c1.111,1.947,1.957,2.806,1.668,5.03c0,0-1.341,2.348-1.727,4.362c-0.655,3.423,0.63,7.19,3.252,9.439 c1.6,1.373,3.617,2.144,5.646,2.667c2.243,0.579,4.643,0.879,6.849,0.171c1.887-0.606,3.465-1.93,4.625-3.575 c0.813,1.232,1.825,2.643,2.542,3.789c0.06,0.096,0.141,0.204,0.249,0.199c0.078-0.004,0.14-0.066,0.195-0.125 c0.868-0.941,1.898-2.219,2.586-3.484c0.185,0.217,0.375,0.43,0.575,0.634c2.265,2.311,5.45,3.879,8.781,3.981 c3.331,0.102,6.747-1.371,8.585-3.998c0.804-1.148,1.293-2.464,1.743-3.774C47.289,26.804,48.124,23.587,46.892,20.765z M16.125,12.534c1.137-0.368,4.503-1.256,7.683-1.044c3.128,0.209,5.534,0.773,8.288,2.22c-3.141,0.837-5.963,2.927-7.406,5.719 c-0.861,1.665-1.24,3.503-1.2,5.345c-0.005-0.002-0.01-0.006-0.015-0.007c-0.008-0.965-0.142-1.937-0.45-2.923 c-0.97-3.112-4.168-5.652-7.076-7.034c-1.012-0.481-2.088-0.846-3.19-1.01C14.164,13.732,15.125,12.858,16.125,12.534z M15.917,34.056c-2.02,0.735-4.305,0.674-6.348,0.001c-2.043-0.673-3.849-1.931-5.303-3.471c-0.417-0.441-0.809-0.909-1.11-1.43 c-0.817-1.414-0.908-3.13-0.619-4.724c0.357-1.969,1.47-3.811,2.982-5.176c1.069-0.966,2.033-2.184,3.448-2.553 c0.608-0.159,1.241-0.213,1.871-0.226c1.997-0.039,4.017,0.354,5.788,1.246s3.283,2.292,4.171,4.019 c0.257,0.5,0.463,1.028,0.573,1.575c0.154,0.764,0.122,1.551,0.068,2.328c-0.082,1.196-0.216,2.401-0.618,3.534 C20.034,31.392,18.186,33.23,15.917,34.056z M43.501,30.641c-0.421,0.948-0.92,1.891-1.697,2.578 c-0.672,0.594-1.515,0.961-2.366,1.247c-0.791,0.266-1.608,0.47-2.44,0.53c-1.435,0.102-2.879-0.235-4.19-0.827 c-3.453-1.56-5.99-4.99-6.471-8.749c-0.096-0.75-0.115-1.515,0.032-2.257c0.123-0.624,0.361-1.219,0.598-1.809 c0.717-1.79,1.838-3.859,3.613-4.611c1.447-0.613,3.374-0.987,4.943-0.889c1.136,0.071,2.226,0.454,3.299,0.833 c1.031,0.364,2.075,0.735,2.976,1.353c1.899,1.303,2.954,3.61,3.116,5.907C45.077,26.246,44.436,28.536,43.501,30.641z"/><path fill="#f58420" d="M12.974,23.607c-0.683-0.125-0.823,0.015-1.515,0.065c-0.256,0.018-0.522,0.074-0.719,0.249 c-0.194,0.171-0.28,0.767-0.334,1.029c-0.152,0.75,0.041,1.242,0.527,1.808c0.486,0.566,1.236,0.858,1.948,0.76 c1.008-0.139,1.609-1.108,1.565-2.194C14.402,24.238,13.976,23.79,12.974,23.607z"/><path fill="#010101" d="M12.606,28.036c-0.771,0-1.534-0.349-2.053-0.954c-0.628-0.73-0.813-1.377-0.638-2.232l0.021-0.112 c0.096-0.508,0.196-0.948,0.471-1.191c0.249-0.221,0.582-0.343,1.017-0.373c0.214-0.015,0.371-0.04,0.51-0.062 c0.317-0.051,0.592-0.095,1.129,0.004c1.25,0.229,1.83,0.903,1.882,2.188c0.057,1.402-0.783,2.542-1.996,2.709 C12.835,28.028,12.721,28.036,12.606,28.036z M12.487,24.057c-0.133,0-0.246,0.019-0.396,0.042 c-0.162,0.025-0.346,0.055-0.597,0.072c-0.207,0.014-0.345,0.055-0.423,0.124c-0.048,0.079-0.125,0.491-0.15,0.627l-0.024,0.126 c-0.112,0.55-0.012,0.886,0.416,1.384c0.377,0.439,0.949,0.67,1.501,0.591c0.819-0.113,1.162-0.949,1.132-1.679 c-0.032-0.831-0.261-1.099-1.062-1.244l0,0C12.718,24.069,12.596,24.057,12.487,24.057z"/><path fill="#38b47b" d="M37.037,24.368c-0.47-0.353-0.745-0.505-1.231-0.7c-0.505-0.203-1.265-0.141-1.733,0.138 c-0.277,0.165-0.449,0.469-0.542,0.782c-0.366,1.222,0.486,2.672,1.713,2.917c0.808,0.161,1.726-0.21,2.102-0.959 S37.7,24.867,37.037,24.368z"/><path fill="#010101" d="M35.634,28.044c-0.162,0-0.326-0.017-0.489-0.049c-0.713-0.143-1.357-0.616-1.77-1.301 c-0.423-0.703-0.541-1.523-0.324-2.25c0.146-0.487,0.412-0.857,0.767-1.068c0.605-0.363,1.521-0.437,2.176-0.172 c0.539,0.217,0.854,0.396,1.344,0.765l0,0c0.797,0.598,0.983,1.75,0.456,2.802C37.399,27.554,36.539,28.044,35.634,28.044z M35.116,24.047c-0.283,0-0.582,0.065-0.787,0.188c-0.135,0.08-0.248,0.256-0.32,0.496c-0.136,0.457-0.055,0.984,0.224,1.447 c0.267,0.443,0.671,0.748,1.108,0.836c0.63,0.127,1.297-0.173,1.558-0.693c0.252-0.501,0.309-1.2-0.161-1.554l0,0 c-0.421-0.315-0.661-0.452-1.117-0.636C35.478,24.074,35.3,24.047,35.116,24.047z"/><path fill="#010101" d="M12.815,35.088c-1.128,0-2.28-0.186-3.403-0.556c-2.003-0.66-3.908-1.906-5.51-3.604 c-0.535-0.566-0.898-1.037-1.18-1.523c-1.004-1.739-0.922-3.714-0.677-5.064c0.366-2.021,1.481-3.96,3.139-5.457 c0.227-0.204,0.447-0.421,0.67-0.638c0.86-0.839,1.75-1.706,2.987-2.028c0.572-0.148,1.203-0.226,1.986-0.241 c2.133-0.052,4.249,0.406,6.022,1.3c1.924,0.967,3.483,2.472,4.392,4.236c0.305,0.593,0.508,1.15,0.619,1.705 c0.169,0.834,0.131,1.673,0.077,2.46c-0.083,1.194-0.219,2.465-0.647,3.668c-0.839,2.363-2.784,4.3-5.203,5.181 C15.06,34.9,13.95,35.088,12.815,35.088z M11.108,16.974c-0.087,0-0.174,0.001-0.261,0.003c-0.702,0.014-1.26,0.081-1.754,0.209 c-0.981,0.256-1.739,0.994-2.541,1.777c-0.231,0.226-0.462,0.45-0.698,0.663l0,0c-1.494,1.35-2.497,3.088-2.824,4.894 c-0.216,1.186-0.294,2.909,0.559,4.386c0.241,0.417,0.562,0.83,1.041,1.338c1.488,1.576,3.25,2.731,5.095,3.34 c2.04,0.672,4.18,0.674,6.021,0.004c2.142-0.78,3.862-2.491,4.604-4.576c0.388-1.09,0.513-2.279,0.591-3.401 c0.049-0.719,0.085-1.48-0.06-2.194c-0.093-0.463-0.266-0.936-0.527-1.445c-0.813-1.578-2.216-2.928-3.952-3.801 C14.844,17.386,13.019,16.974,11.108,16.974z M5.52,19.255h0.01H5.52z"/><path fill="#010101" d="M36.494,35.513c-1.263,0-2.597-0.304-3.893-0.889c-3.605-1.629-6.259-5.217-6.761-9.141 c-0.116-0.91-0.104-1.701,0.038-2.417c0.132-0.67,0.382-1.294,0.624-1.897c1.052-2.627,2.321-4.226,3.882-4.886l0,0 c1.589-0.674,3.57-1.031,5.169-0.928c1.212,0.076,2.342,0.475,3.434,0.86c1.049,0.371,2.134,0.754,3.094,1.413 c1.899,1.304,3.145,3.652,3.332,6.284c0.149,2.124-0.326,4.391-1.455,6.932c-0.412,0.927-0.95,1.978-1.823,2.749 c-0.798,0.705-1.774,1.09-2.537,1.346c-0.943,0.317-1.782,0.498-2.563,0.555C36.855,35.507,36.676,35.513,36.494,35.513z M30.775,17.203c-1.285,0.545-2.41,2.004-3.345,4.337c-0.235,0.587-0.457,1.142-0.571,1.72c-0.12,0.609-0.129,1.295-0.026,2.097 c0.458,3.588,2.885,6.867,6.181,8.355c1.33,0.602,2.69,0.876,3.949,0.784c0.696-0.05,1.454-0.215,2.316-0.504 c0.673-0.227,1.529-0.562,2.193-1.148c0.729-0.644,1.203-1.577,1.571-2.405c1.061-2.387,1.51-4.499,1.371-6.455 c-0.165-2.33-1.249-4.397-2.9-5.53c-0.851-0.585-1.872-0.945-2.86-1.294c-1.027-0.363-2.09-0.738-3.163-0.806 C34.059,16.267,32.208,16.598,30.775,17.203L30.775,17.203z"/><path fill="#010101" d="M47.35,20.565c-0.37-0.846-0.82-1.505-1.322-2.114c0.123-0.378,0.239-0.748,0.345-1.097 c0.378-1.246,0.704-2.323,1.472-3.504c0.108-0.166,0.108-0.38,0-0.545c-0.107-0.167-0.301-0.261-0.499-0.221 c-1.984,0.32-4.275,0.48-6.14,0.435c-0.463-0.012-0.997-0.034-1.49-0.15c-0.563-0.133-1.096-0.385-1.659-0.652l-0.167-0.078 c-4.966-2.342-9.904-3.561-14.678-3.621c-5.212-0.048-10.589,1.47-14.677,4.217c-0.797-0.077-1.744-0.062-2.661-0.047 c-0.952,0.015-1.941,0.032-2.707-0.059c-0.687-0.083-1.466-0.175-2.242,0.007c-0.538,0.131-0.732,0.424-0.8,0.645 c-0.116,0.375,0.072,0.703,0.162,0.859c0.188,0.328,0.368,0.627,0.536,0.905c0.803,1.33,1.288,2.133,1.069,3.813 c-0.001,0.008,0.002,0.015,0.002,0.023C1.06,20.737,0.455,22.2,0.17,23.689c-0.687,3.586,0.687,7.569,3.418,9.912 c1.437,1.232,3.294,2.114,5.847,2.772c1.556,0.401,2.93,0.602,4.177,0.602c1.065,0,2.038-0.146,2.949-0.438 c1.688-0.542,3.234-1.663,4.454-3.175c0.316,0.485,0.625,0.938,0.929,1.375c0.395,0.565,0.788,1.131,1.208,1.803 c0.181,0.288,0.403,0.434,0.665,0.434c0.011,0,0.021,0,0.033-0.001c0.288-0.014,0.463-0.205,0.537-0.286 c0.956-1.037,1.625-1.901,2.175-3.127c0.088,0.095,0.17,0.195,0.261,0.288c2.472,2.523,5.797,4.029,9.122,4.131 c0.114,0.003,0.229,0.005,0.343,0.005c3.487,0,6.861-1.632,8.668-4.216c0.847-1.209,1.356-2.589,1.807-3.897 C47.827,26.776,48.635,23.508,47.35,20.565z M46.477,14.221c-0.49,0.959-0.77,1.881-1.062,2.844 c-0.049,0.164-0.109,0.345-0.161,0.515c-0.168-0.177-0.334-0.353-0.51-0.535c-0.258-0.267-0.526-0.544-0.802-0.842 c-0.688-0.743-1.462-1.266-2.289-1.681C43.15,14.535,44.864,14.429,46.477,14.221z M35.899,12.849 c-1.173-0.084-2.361,0.012-3.519,0.277c-2.658-1.434-5.292-2.061-9.068-2.153c-0.688-0.018-1.628,0.058-2.459,0.123 c-0.312,0.024-0.604,0.048-0.857,0.063c-2.063,0.132-4.572,0.926-6.884,2.18c-0.01,0.006-0.016,0.016-0.026,0.022 c-0.556-0.098-1.104-0.163-1.635-0.161c-0.367,0.004-0.737,0.039-1.107,0.091c3.722-2.146,8.287-3.331,12.855-3.273 C27.329,10.07,31.594,11.026,35.899,12.849z M23.392,21.428c-1.136-3.203-4.441-5.745-7.23-7.07 c-0.544-0.259-1.077-0.457-1.604-0.628c1.9-0.901,3.86-1.467,5.501-1.572c0.257-0.017,0.555-0.04,0.872-0.064 c0.809-0.063,1.735-0.137,2.355-0.12c3.159,0.077,5.471,0.54,7.683,1.564c-2.84,1.004-5.348,2.999-6.726,5.663 C23.876,19.913,23.599,20.662,23.392,21.428z M1.679,15.028c-0.165-0.272-0.341-0.563-0.524-0.886 c-0.006-0.011-0.012-0.021-0.017-0.029c0.006-0.002,0.012-0.003,0.019-0.005c0.6-0.139,1.256-0.063,1.892,0.013 c0.834,0.099,1.855,0.083,2.842,0.066c0.516-0.008,1.039-0.015,1.535-0.006c-0.485,0.234-0.956,0.503-1.405,0.814 c-1.186,0.822-2.236,1.826-3.122,2.94C2.758,16.835,2.281,16.027,1.679,15.028z M16.256,35.584 c-1.789,0.574-3.875,0.519-6.571-0.179c-2.399-0.618-4.13-1.433-5.446-2.563c-2.467-2.116-3.707-5.719-3.086-8.965 c0.594-3.099,2.626-6.112,5.437-8.06c1.479-1.023,3.209-1.598,4.874-1.617c0.028,0,0.056-0.001,0.084-0.001 c1.296,0,2.704,0.357,4.186,1.062c2.677,1.272,5.871,3.709,6.813,6.732c0.741,2.376,0.534,4.879-0.651,7.877 C20.787,32.671,18.68,34.807,16.256,35.584z M23.856,35.783c-0.376-0.589-0.734-1.104-1.092-1.617 c-0.367-0.526-0.735-1.06-1.122-1.671c0.461-0.695,0.862-1.449,1.182-2.258c0.282-0.714,0.504-1.399,0.683-2.067 c0.47,1.611,1.251,3.156,2.325,4.531C25.339,33.952,24.762,34.78,23.856,35.783z M45.817,29.545 c-0.427,1.241-0.908,2.546-1.681,3.649c-1.678,2.4-4.894,3.905-8.16,3.784c-3.07-0.094-6.146-1.489-8.438-3.83 c-2.257-2.304-3.49-5.332-3.563-8.317c0-0.059,0.003-0.118,0.002-0.177c-0.016-1.735,0.357-3.45,1.155-4.995 c1.851-3.58,5.925-5.855,9.928-5.855c0.983,0,1.964,0.138,2.905,0.427l0.162,0.051c2.003,0.615,3.732,1.146,5.079,2.601 c0.281,0.304,0.555,0.586,0.818,0.857c1.016,1.049,1.818,1.877,2.408,3.227C47.582,23.595,46.815,26.643,45.817,29.545z"/><path fill="#373837" d="M38.681,22.993c1.005,1.192,1.261,3.029,0.585,4.452c-0.676,1.423-2.26,2.325-3.765,2.102 c-0.593-0.088-1.154-0.331-1.692-0.606c-0.889-0.454-1.778-1.05-2.211-1.98c-0.506-1.086-0.269-2.417,0.297-3.469 c0.581-1.08,1.524-1.721,2.685-1.97C36.069,21.203,37.676,21.8,38.681,22.993z M32.644,20.098c-1.281,0.552-2.226,1.205-2.765,2.58 c-0.539,1.376-0.573,3.682,0.108,4.982c0.291,0.555,1.356,1.926,1.75,2.313c1.746,1.714,4.995,2.066,7.09,0.9 c2.096-1.166,3.083-4.024,2.458-6.475c-0.975-3.82-2.607-4.262-4.225-4.57C35.561,19.542,34.051,19.492,32.644,20.098z"/><path fill="#010101" d="M35.96,30.08c-0.178,0-0.355-0.013-0.532-0.039c-0.699-0.104-1.325-0.389-1.847-0.654 c-0.792-0.404-1.906-1.074-2.437-2.214c-0.521-1.121-0.406-2.585,0.31-3.917c0.628-1.165,1.672-1.933,3.021-2.223l0,0 c1.647-0.351,3.45,0.289,4.588,1.638c1.138,1.351,1.407,3.402,0.654,4.989C39.021,29.124,37.5,30.08,35.96,30.08z M34.685,22.012 c-1.068,0.229-1.859,0.807-2.35,1.718c-0.567,1.056-0.673,2.185-0.284,3.021c0.31,0.663,0.922,1.201,1.985,1.745 c0.448,0.229,0.981,0.474,1.538,0.557c1.263,0.187,2.658-0.596,3.24-1.822c0.59-1.244,0.378-2.854-0.517-3.915 C37.397,22.247,35.987,21.73,34.685,22.012L34.685,22.012z"/><path fill="#010101" d="M35.984,32.064c-1.712,0-3.446-0.604-4.598-1.734c-0.407-0.399-1.514-1.808-1.843-2.438 c-0.793-1.515-0.686-3.98-0.131-5.396c0.643-1.64,1.837-2.342,3.032-2.856c1.318-0.567,2.814-0.662,4.708-0.303 c1.858,0.354,3.61,0.997,4.616,4.937c0.706,2.763-0.455,5.788-2.699,7.036C38.155,31.819,37.074,32.064,35.984,32.064z M35.097,20.124c-0.846,0-1.583,0.144-2.255,0.434l0,0c-1.185,0.51-2.016,1.073-2.497,2.304c-0.467,1.191-0.547,3.36,0.086,4.567 c0.255,0.488,1.275,1.814,1.656,2.188c1.563,1.537,4.537,1.913,6.497,0.82c1.83-1.019,2.804-3.617,2.217-5.915 c-0.933-3.65-2.408-3.931-3.835-4.202C36.286,20.189,35.667,20.124,35.097,20.124z M32.644,20.099h0.01H32.644z"/><path fill="#373837" d="M14.768,22.138c0.795,0.403,1.254,1.014,1.476,1.923c0.099,0.405,0.105,0.828,0.109,1.246 c0.008,1-0.019,2.068-0.547,2.894c-0.584,0.912-1.682,1.326-2.716,1.297s-2.024-0.434-2.973-0.871 c-0.239-0.11-0.48-0.224-0.68-0.402c-0.409-0.362-0.592-0.93-0.748-1.472c-0.078-0.27-0.154-0.542-0.197-0.822 c-0.144-0.939,0.105-2.338,0.617-3.117c0.512-0.779,1.695-1.229,2.888-1.331C13.104,21.388,13.973,21.735,14.768,22.138z M10.105,19.677c-0.384,0.065-0.77,0.156-1.112,0.346c-0.3,0.167-0.557,0.404-0.792,0.658c-1.175,1.273-1.829,3.035-1.777,4.785 c0.012,0.416,0.085,0.827,0.177,1.233c0.697,3.065,2.947,4.44,6.32,4.6c0.354,0.017,0.709,0.021,1.061-0.016 c1.494-0.157,2.825-1.192,3.564-2.532s0.931-2.944,0.752-4.472c-0.058-0.492-0.153-0.981-0.319-1.446 c-0.444-1.243-1.409-2.281-2.601-2.794c-0.612-0.264-1.272-0.392-1.929-0.49C12.97,19.479,10.718,19.573,10.105,19.677z"/><path fill="#010101" d="M13.191,29.999c-0.038,0-0.077,0-0.115-0.001c-1.155-0.032-2.242-0.49-3.169-0.917 c-0.227-0.104-0.538-0.246-0.804-0.481c-0.5-0.442-0.717-1.086-0.896-1.707c-0.084-0.291-0.165-0.584-0.211-0.885 c-0.168-1.098,0.137-2.62,0.693-3.467c0.555-0.845,1.774-1.427,3.263-1.556l0,0c1.238-0.111,2.193,0.276,3.043,0.707 c0.91,0.462,1.479,1.198,1.734,2.251c0.108,0.441,0.12,0.877,0.123,1.36c0.01,1.092-0.031,2.236-0.626,3.167 C15.619,29.42,14.463,29.999,13.191,29.999z M12.038,21.981c-1.15,0.1-2.136,0.535-2.513,1.108 c-0.424,0.645-0.672,1.911-0.541,2.767c0.04,0.257,0.111,0.509,0.184,0.759c0.145,0.5,0.299,0.97,0.599,1.236 c0.144,0.126,0.329,0.216,0.558,0.32c0.838,0.387,1.813,0.8,2.779,0.826c0.752,0.038,1.757-0.248,2.281-1.066 c0.447-0.699,0.477-1.639,0.468-2.62c-0.003-0.436-0.012-0.794-0.094-1.132c-0.188-0.772-0.563-1.265-1.216-1.595 C13.715,22.164,12.977,21.903,12.038,21.981L12.038,21.981z"/><path fill="#010101" d="M13.386,31.812c-0.179,0-0.344-0.006-0.487-0.013c-3.789-0.179-6.071-1.857-6.783-4.988 c-0.118-0.514-0.179-0.937-0.19-1.328c-0.056-1.892,0.641-3.765,1.91-5.14c0.319-0.347,0.61-0.587,0.916-0.757 c0.424-0.235,0.88-0.336,1.271-0.402c0,0,0,0,0.001,0c0.649-0.11,2.955-0.208,3.501-0.128c0.629,0.093,1.364,0.229,2.054,0.525 c1.311,0.564,2.386,1.717,2.874,3.085c0.162,0.453,0.274,0.963,0.345,1.556c0.146,1.242,0.124,3.079-0.812,4.771 c-0.857,1.554-2.37,2.621-3.948,2.787C13.812,31.804,13.59,31.812,13.386,31.812z M10.188,20.17 c-0.307,0.052-0.659,0.128-0.951,0.29c-0.211,0.117-0.423,0.295-0.668,0.561c-1.094,1.185-1.693,2.8-1.645,4.432 c0.01,0.325,0.063,0.687,0.165,1.136c0.609,2.678,2.524,4.056,5.855,4.213c0.273,0.011,0.631,0.021,0.985-0.015 c1.259-0.133,2.477-1.005,3.179-2.275c0.629-1.141,0.875-2.622,0.693-4.172c-0.062-0.518-0.157-0.955-0.293-1.337 c-0.397-1.11-1.268-2.046-2.328-2.503c-0.584-0.251-1.24-0.371-1.805-0.455C12.975,19.988,10.771,20.071,10.188,20.17L10.188,20.17 z"/></svg>